/* XPM */
static char *aec82bf693094d94bcaf50b2a7b6f1ccDdUWpatlTywOXcfp[] = {
/* columns rows colors chars-per-pixel */
"77 63 64 1 ",
"_ c none",
"  c #010101",
". c #070707",
"X c #090909",
"o c #0C0C0C",
"O c gray7",
"+ c gray8",
"@ c gray10",
"# c gray12",
"$ c #222222",
"% c #272727",
"& c #282828",
"* c gray18",
"= c #313131",
"- c #373737",
"; c #393939",
": c #3E3E3E",
"> c #434343",
", c #444444",
"< c #494949",
"1 c gray30",
"2 c #505050",
"3 c gray34",
"4 c #585858",
"5 c gray36",
"6 c #606060",
"7 c #676767",
"8 c DimGray",
"9 c #6C6C6C",
"0 c #727272",
"q c #747474",
"w c #7B7B7B",
"e c gray49",
"r c gray51",
"t c #848484",
"y c #888888",
"u c #8D8D8D",
"i c #909090",
"p c #959595",
"a c #989898",
"s c #9F9F9F",
"d c gray63",
"f c gray65",
"g c #AAAAAA",
"h c #ACACAC",
"j c #B2B2B2",
"k c #B4B4B4",
"l c gray72",
"z c #BCBCBC",
"x c #C3C3C3",
"c c #C5C5C5",
"v c #CACACA",
"b c #CDCDCD",
"n c gray82",
"m c #D7D7D7",
"M c #D8D8D8",
"N c gainsboro",
"B c gray89",
"V c #E4E4E4",
"C c gray91",
"Z c #EEEEEE",
"A c gray95",
"S c gray96",
"D c gray98",
/* pixels */
"1vMbVmvNNNNmnmnzzcnBCACBBNMmvvvxvmVBBVCCCBVVVVBBMmBCAAAAAAZZCVVVCCNCSBCBq; o ",
"2SBZAVZACDAZCZBbbnNVVBMnmmNVBCZCZZZCVBBBNmBBVCCCVBVZAZCCCVVVBBBBBBBVMVZSx:  .",
"1q878899777999878778799898808888978888777877777776567678887888888876q6486-.  ",
"3662544364444433454546767634555444254436544564453411644543444364456441111=   ",
"<899X.+OO$&****&&%==**&%*&**&*&**=*%%**&&&*&&%*=&&=*$%&*&=**%&&&%&$$%754,;   ",
"3998.#%&*****&****&*&*&&**&*&-&=%&*&**%&****=*&%$*$=&**=%#%%%*&*&&=*%e51;;   ",
"2862+@=-=-*=------;:;;;;>><1,1<446577766556545665774233,4764421>,:&*>w61:=   ",
"2870wwwqwrtyyw99rpjhfsssdffghjhgggjgipppiggdppaiuipsfdapgsdaspppsaspir52<;   ",
",431,<<23<2<,<22<:<,<,,<,,>>,>>,1211:><<:>>>:>>:,<>--,-=;;;;-;=;--;;,:;<<:   ",
"-=,<-*>>;<>>,,>::>;;,,<<,,11<1<1<<><2,<<1>::=-::;-:>:;-:-=;>:>:>;-;:::-;&$   ",
"  #.+ooOO@+o..XoX.Oo+oooXoOo.X.OXooo*%#.@oXOXoo.XXXo+X+o.o.XX.OOOOo+O+OX..   ",
"  o#@@$##@#@.+ ..o+oO$##O________________________.=%@X#OXo. O O@###$##$@     ",
"  $%@##@##$+ #%o#*$#+$=%$________________________.>%%+&-&*%+$.$%@$###@#@.    ",
"  &-&OoO%#$# =&O%*%+#=*;+________________________X3-=O+#,:@&* %;%XXo$@$+. . .",
"  =>;OXo=$&# ;=**+@,&123%________________________oq6<%;+$-=;%.;;;O.@-**#.    ",
"  >>>+@O>*&#.OO@$&65*462-________________________ot78*=2>$#@O :>,X+%>*%#     ",
"  >>:O$$3&=% $:1&,8<&886-________________________+p70*12929-%.>>>#%*1=*%.  X ",
"  :,:+$=5%*$ ::4-07w=576*________________________#p0e*3,u-2;= ;,>+$&3*=$     ",
"  ,<>&&-6--+.;#**6w1:866=________________________#st0*9qy*&%%.1>,%&=8*-@.    ",
"  <1,%*-4;-#X#>:;7w1-656&________________________&d9r=96r;6># 2>,$**6--$     ",
"  113*=-7=:# $:6>5r5=783$________________________&yet%58e:0>@ 114*;-7=;$     ",
"  2<5*--9=:#.%:4:*89-677*________________________*pew;8w9:,%@.124$:;9=:@.    ",
"  116&-;9--#.Oo%;&77<r46#________________________=ywe>46<&$++ ,26*-;9-:@.    ",
"  255&::7;:$ -:3=%%@>i48#________________________=tqr-:$&>3,=.255*;:8;:#.    ",
"  165*,<7>>% :,6:r>#,y38$________________________=yew3#11=41- 254&<<7>>%.    ",
"  164*1201,#X;::*3t5<u47%________________________&twq<84,&1<; 244=2291,$     ",
"  354*13q21# ;%*2::7>i28$________________________%pew3,;,>$&*.254&22q2<#     ",
"  162=23q1<@ #$*0w;;<y69&________________________%utr<-:7q%$O 143*42q,1+     ",
"  152-45e<<$ +>&0e8-4i66&________________________@iw04$237*-%o354;35t,1@     ",
"  355>57t><oX#-;<qq-5p79*________________________Xiye>>48,--# 154:56t:<+.    ",
"  255:35r:<% +#=;ee35i9q#________________________Xy0y:<e7&%#+.376;54r:1+     ",
"  146;24y,1+.#+*;<r82uqw$________________________oiry,6t;,:#@ ,36:23t<3@     ",
"  156;24y23@X+%<::re5uq0%________________________Oiei308-<<$#.167;14y11@.    ",
"  155=33r1,@ ;,89-6e6i0w&________________________oatp;77-we1= 155*45t2,@.    ",
"  165-66t31$.=1q7=5r4s0w+________________________Xiep:0,=292; 264-74e4<#.    ",
"  147*60i4<$ &=28>3t4p9q#________________________#s0i=91>26<%.256*79i5,$     ",
"  256=70u2<$o#<25=qt6iqq*________________________opry192%41:*X<35:88p21@.    ",
"  266-89i3,$ O$:;-6y3ywqO________________________Xiue:77=1<=# 187=89p21#.    ",
"  175-67p42# +O%=18w5i8t#________________________Opqe165,;$@#X174=68p21$     ",
"  175=36p1<#.=-=-6a21ute$________________________+f0r1;7w-3=#X274-45s,3@.    ",
"  275-38a<1& $==1u8-1yqw*________________________Our9,,ww3-&$X175-47s<2#     ",
"  256:28s1<%X#-*78>5<iwe+________________________orew>@3u0**$X,77;38a21&     ",
"  246:,4p23& %O*7=9i2a9e#________________________Ouqq-=$7e&#oO265:,4a<4&     ",
"  167;13i45% =$==5e21a9y$________________________ rwq*;3:7-@=o156;<5p43%X    ",
"  <74-25l24$o-;&eiwq,awq@________________________Xwy8*4qew<&*X366;24g26%.    ",
"  147:,4d42- =::,83;:hee%________________________+er7=#-rr=;:+<44:>4f64&  .  ",
"  <36*25h55%.-;,==;7>keeO________________________@we7;#$=:,=&O137;23h54&X  . ",
" 2155:;,f65%@#+@=*rw,g99$________________________@te6&*1,=#@O4154>:<d56%= .  ",
" r115,:2h54*+ ;2;5e5:dq0+________________________@909&:2w,0:&9227;>2f73#,. . ",
" d155->,g62%:O,2>eeu-h69&________________________+7w6#21e>2-%h444;>:f54*;   .",
" g,>4agf072&=X%&;0i7%dw5&________________________o784*70s*&$OM<48pffw7,&2    ",
" b:>26554<,&<o::>wu5#u97%________________________O471&85p-6:#M376877541&7    ",
" n;*>,<12214eo,4,6i8%p85%________________________O193@64e>q,&M9456856535y    ",
" MNbBnmhgkkjiO$<-$56=a73*________________________O483$167&=#+vlCNhjzbbzzeX   ",
" rbdsCMM6zvkp oOo@,1%r63%________________________@,62%*-*+oXopcBNwxCVMyka    ",
" 58,3q,,<q,7<+@#=%%;%034+________________________$641&$$&+o@.t817;4021=,$    ",
" :46873348>8, 3qtyiap54,%________________________&1222faye7-%e05q7<w,30<=o   ",
" <,811>35-<7;O:6w8we01:3%________________________*3<3,w0q86;*t1755>0<>3:*    ",
" <3221:1,,<;=O#*:;,*:>>:$________________________=<,4>>>::=#+a6474;911;*-    ",
" ,<523,<;>--*.&:<<<>><<:@________________________==>1>,<1,>*#u8376>2:,-==  . ",
" =1233:,*=-=-X&:,<<>;--=#________________________%-&&=>:>>-%@w7<43><;:;=-    ",
" =<::;;1%=%#= #&*-*=-;-=$________________________O*%%$**--@O+1&1%;::-;:=*   .",
" =*+&&+&$*$$*X#$%&%$#++##________________________++$%+O@$##O+-&&+*-=*--*&X . "
};
