/* XPM */
static char *bf3f9ad6edd543e7a7152322a6795aa3KzweS0YkTPakceuS[] = {
/* columns rows colors chars-per-pixel */
"64 64 187 2 ",
"   c #None",
".  c #010101",
"X  c #050A00",
"o  c #0A0C03",
"O  c #070709",
"+  c #090708",
"@  c #0B0B0B",
"#  c #001400",
"$  c #0D1201",
"%  c #041B00",
"&  c #0C1B00",
"*  c #0F100B",
"=  c #111504",
"-  c #161B05",
";  c #181F00",
":  c #13140C",
">  c #16190C",
",  c #191D0C",
"<  c #0E0E10",
"1  c #131413",
"2  c #171913",
"3  c #1A1C14",
"4  c #171719",
"5  c #1D1D1D",
"6  c #0F2000",
"7  c #142400",
"8  c #1C2402",
"9  c #1A2800",
"0  c #1C210D",
"q  c #1E2213",
"w  c #1F201B",
"e  c #202700",
"r  c #252A0F",
"t  c #23260F",
"y  c #253109",
"u  c #222515",
"i  c #252A15",
"p  c #292D15",
"a  c #22241B",
"s  c #262A1B",
"d  c #292D1C",
"f  c #2D3116",
"g  c #2C311D",
"h  c #30351D",
"j  c #323A1E",
"k  c #1E1E20",
"l  c #242423",
"z  c #272923",
"x  c #2A2C23",
"c  c #262628",
"v  c #2C2C2B",
"b  c #302F2F",
"n  c #2E3123",
"m  c #2F3129",
"M  c #313425",
"N  c #353925",
"B  c #393D24",
"V  c #32352B",
"C  c #363A2B",
"Z  c #3A3D2C",
"A  c #2F2F31",
"S  c #312F30",
"D  c #343433",
"F  c #383637",
"G  c #373A31",
"H  c #3A3C33",
"J  c #3C3D39",
"K  c #364022",
"L  c #3D422D",
"P  c #3B4026",
"I  c #3E4232",
"U  c #3F4238",
"Y  c #41452D",
"T  c #414534",
"R  c #454A35",
"E  c #484C36",
"W  c #434639",
"Q  c #464A3A",
"!  c #4A4D3C",
"~  c #4C513C",
"^  c #4F583E",
"/  c #51563E",
"(  c #4B4D43",
")  c #4E5242",
"_  c #525544",
"`  c #555A45",
"'  c #595D46",
"]  c #53554B",
"[  c #565A4A",
"{  c #595D4B",
"}  c #565750",
"|  c #5B5C52",
" . c #5E5F5A",
".. c #586147",
"X. c #5D624D",
"o. c #5E6252",
"O. c #5F605A",
"+. c #60644E",
"@. c #60694F",
"#. c #616554",
"$. c #646955",
"%. c #686C55",
"&. c #63655C",
"*. c #666A5A",
"=. c #696D5C",
"-. c #6D725E",
";. c #71755E",
":. c #6B6D62",
">. c #696A65",
",. c #6E7162",
"<. c #6F7068",
"1. c #727564",
"2. c #757965",
"3. c #797C65",
"4. c #73746A",
"5. c #77796B",
"6. c #7A7D6C",
"7. c #7B7D71",
"8. c #7D826D",
"9. c #7E8172",
"0. c #81846E",
"q. c #828574",
"w. c #858A74",
"e. c #898D76",
"r. c #83857A",
"t. c #86897B",
"y. c #8A8D7C",
"u. c #8D927D",
"i. c #90937E",
"p. c #8B8D82",
"a. c #8E9281",
"s. c #919584",
"d. c #949986",
"f. c #949788",
"g. c #979A8A",
"h. c #9A9E8C",
"j. c #9B9D93",
"k. c #9CA08F",
"l. c #9EA291",
"z. c #A1A594",
"x. c #A5AC94",
"c. c #A5A998",
"v. c #A9AD9B",
"b. c #A2A59D",
"n. c #ACB29D",
"m. c #ADAEA7",
"M. c #AFB3A2",
"N. c #AFB1AA",
"B. c #B2B6A3",
"V. c #B6B9AA",
"C. c #B9BCAE",
"Z. c #C1C4B4",
"A. c #C4C6B9",
"S. c #CACCBE",
"D. c #C4C9B7",
"F. c #CCD2BC",
"G. c #CBCDC0",
"H. c #CFD2C5",
"J. c #D1D4C6",
"K. c #D5D9C6",
"L. c #D4D6CD",
"P. c #D6D9CC",
"I. c #D9DCCD",
"U. c #D5D5D3",
"Y. c #DADBD6",
"T. c #DBDBD8",
"R. c #DDE2CC",
"E. c #DEE2D4",
"W. c #E1E4D6",
"Q. c #E3E6D8",
"!. c #E5E7DA",
"~. c #E1E2DD",
"^. c #E5E9DA",
"/. c #E7EBDD",
"(. c #E7EED8",
"). c #E8EADD",
"_. c #E9ECDE",
"`. c #EAECE2",
"'. c #EDEDEC",
"]. c #E6E6E4",
"[. c #EDF1E2",
"{. c #EFF2E4",
"}. c #F1F4E6",
"|. c #F3F4EB",
" X c #F5F9EA",
".X c #FFFFFF",
"XX c #F7F8F3",
/* pixels */
"L.H.Y.I.S.Y.Y.Y.Y.P.J.P.A.C.A.J.W.[.`.W.E.I.P.G.S.A.A.J.Q.Q.W.^._.).W.Q.^.!.W.E.P.I.^.[.{.{.}.}.}.[.`.).!.!.)./.E.}./._.P.| w @ ",
"|.Q.}.^.[.[.[.{. X_./._.K.S.J.E.^.W.I.H.J.P.W.W.^._./.[.[./.W.W.W.Y.P.E.W.^./._.^.W._.[.[._._._.^.^.Q.W.E.E.W.W.Q.E.E.[.}.b.. 1 ",
"4.*.*.=.:.=.=.$.$.=.-.=.$.$.$.*.*.=.-.=.-.*.,.=.*.*.=.=.*.=.=.*.#.*.*.$.$.#.#.$.#.o.o.#.#.#.=.=.=.*.*.*.=.*.*.*.o.=.=.[ *.[ 3 . ",
"#.[ [ { [ { { X.` ' { ` _ ' ..{ { X.#.o.#.{ ` { X.{ ' { _ { ` _ { X.' ` X.{ ` { ` _ E X.{ { { { _ ` ` _ { X.` { X.{ ) ! ) Q 3 . ",
":.,.H . , $ $ - s d g g d i i g g d d i d d g d g d g g g i i g s i d d i i d n i d g u i d d d g g d i s s i i i $ [ o.] W z . ",
":.-.Z X s i i d g d d d d g g i d d d i g d d d M d g i g d d s i g d d g g i u i i d d d g g g 0 u i s d s s d N . =.*.Q Z z . ",
"=...n $ M N N M g g M N N M N Z Z C C Z L T E R E ~ ` X.X.#.$.#.X.{ { o.{ { X.X.X.#.{ ) _ ~ E E o.X.` ` ~ T T Z d p -.%.! H a . ",
"=.=.5.6.5.5.5.8.q.t.t.2.=.6.f.M.v.z.h.l.z.z.c.n.M.n.v.c.M.v.s.s.d.s.c.c.h.s.g.s.a.s.h.z.z.d.l.l.z.k.h.h.s.s.h.h.h.s.w.o.) Q a . ",
"[ _ Q Q ! ` ` ~ ) ! T ! _ ! I Q Q Q T Q T T T T T T Q ) ~ ! Z T ! I I I I L T I R Q Z C T N N N Z C C C N N N N N L L N E Q z . ",
"C ! Z d I Z Z T T T W T I I U C I Q Q ! T Q ! E ! ! ! E T E ) Q E ! T I C N L Z C C I I C C Z Z N C I I I U Z C C Z L N C s 2 . ",
". . V $ o $ $ > > o . X o o X $ = = o o o $ $ X X X $ o o = g u $ = $ o $ o $ X X X o = o = X X o X X . o $ = $ $ = = $ X . . . ",
". . V , 0 0 0 , 0 , o : . X $ > o 3 a 5 :                                         l v 3 o , o o o X X * X > , 0 0 q q q > . . . ",
". . V , 0 0 0 , 0 , o : . X $ > o 3 a 5 :                                         l v 3 o , o o o X X * X > , 0 0 q q q > . . . ",
". . V , 0 - - 0 q > X a 3 > x u > 2 m z 5                                         v F a > x M M x z 2 3 : s , 0 0 , > q > . . . ",
". . U = X - - q q , : V 3 3 x u : x m G 2                                         J ( x , o V V W 3 z l o C d . X , , q > . . . ",
". . ) - . q q d u 3 2 G m x = d Z H ] ] w                                         ] 4.Q x M = = M V G 2 a H C = . d N d 3 . w . ",
". . ) q X d d Z a q X = > 3 x #.! W &.] m                                         O.7.#.M Z ! ! x 3 3 . z T T = $ N C u 3 . 5 . ",
". . ) 0 $ Z Z T s s . x ( V W *.M _ ,.&.V                                         :.r.=.Z E #.#.{ &.H $ x W L 0 0 T I d a . 5 . ",
". . ) 0 = E E E q u 2 Z _ T *.;.$.T *.&.z                                         :.t.1.T Y 1.1.*.U U a a Q T , - Q T d w . 5 . ",
". . ` d 8 E E ) n 3 2 M u d #.1.Z [ *.| z                                         4.g.,.Z %.w.w.#.X x : V Q I d ; [ ) d 3 . 5 . ",
". . ] s i R R ~ N u . x T V $.;.Z ) #.o.a                                         7.p.2.E $.2.2.X.` Q . G ( T s 8 ~ ! n a . w . ",
". . { N i ~ ~ _ V s . a [ ! { 8.E ) ,.] 2                                         &.t.q.Z X.3.3.' &.Q . V ) [ M p ` ! N a . 5 . ",
". . #.Z r ` ` { n s X d _ ! d =.[ ! =.&.z                                         :.p.1.T -.3.3.~ I x . V ) [ d f { ) N q . 5 . ",
". . $.C i ` ` { d s X $ > N M %._ ,.:.} 3                                         &.r.3.E ' ' ' M 0 > . x ) o.N r { ` N 3 . 5 . ",
". # *.N h ) ) ` V s : C ) I t i . 6.1.| 5                                         &.q.7.T j 0 0 N ` Q 3 V | { n f { _ V q . 5 . ",
". 6 =.N L ` ` [ H s 2 Z { E 2.T X 4.:.&.a                                         >.t.5._ p / / N ) ) q V o.[ M Y { ` Z u . 5 . ",
". % *.N R o.o.#.T u > Z L d ` q.T 5.1.| a                                         &.r.4.` $./ / g Q ! s V { [ C ~ X.{ T u . 5 . ",
". 7 #.N R #.#.*.! a > C q E L ! _ 5.,. .a                                         <.p.5.[ Y P P T s d 3 V o.[ M E $.#.W 3 . w . ",
". 7 #.N E #.#.#.T u . u - *.6.Z f 4.4.&.a                                         &.p.9.E f ~ ~ 2.T = . V [ ` N ~ $.X.W 3 . 5 . ",
". # #.Z / -.-.*.T x . M n #.9.+.f q.5.} z                                         :.y.,._ g _ _ #.U n : G o.[ L ~ 2.$.T w . 5 . ",
". 7 *.R ` 2.2.=.I u . d C T 4.=.h t.5.&.z                                         &.f.9.R Y $.$.` N V X V { { T _ 3.#.H 3 . 5 . ",
". % *.R ~ -.-.*.Z n . : d M 5.2.E q.7.<.3                                         &.9.q.T { 3.3.L q u . C #.o.I _ 1.X.T 3 . 5 . ",
". . *.T R -.-.,.T s X 3 u N ~ 8.' 5.q.4.3                                         *.a.w.E ;.-.-.h T q . x ` o.T R 1.$.! a . 5 . ",
". # =.T E -.-.4.! d . = H I T w.-.6.q.:.a                                         &.t.y.#.;._ _ Z ( s X V o.$.L R 3.=.T w . 5 . ",
". # *.Z ~ =.=.,.L u : Z | ,.L =.-.9.q.4.z                                         :.s.a.E %.~ ~ #.9.) q n | { C ^ 2.=.H 3 . 5 . ",
". 7 =.L ' 1.1.1.Q d o C *.:.M %.-.q.t.<.>                                         &.y.y._ %.h h T =.] a m o.{ I ..-.=.W w . 5 . ",
". . -.L { q.q.6.T s @ x T *.T $.1.9.9.:.3                                         5.p.q.! $.T T E #.Q $ V o.o.Z @.q.4.I a . w . ",
". # =.L X.8.8.2.I x . M ( [ Z 6.2.6.q.4.z                                         :.s.q.[ %.N N ! ` H q n ` { R X.q.1.T a . 5 . ",
". 7 =.I +.8.8.6.L d . : M Z M -.2.1.r.4.o                                         &.g.6.R $._ _ L ! V X x &.#.L @.q.1.T a . 5 . ",
". 9 =.L ' 8.8.8.E x . : 3 d ! ;.=.9.5.7.w                                         :.t.5.` +._ _ Z a 3 o m #.{ L ..q.1.T a . 5 . ",
". 9 =.C ~ 6.6.6.L d o V V d *.i.B 5.p.7.3                                         7.a.2.) P 2.2.` ! C . V #.{ L ~ w.1.W a . 5 . ",
". 9 =.L ~ q.q.6.L V . x M T t.$.p 5.9.5.z                                         &.p.,.Y _ 0.0.$.C x = n #.o.L ~ y.4.T a . 5 . ",
". & =.T E q.q.9.Z n X x d { =.~ ~ 5.t.5.:                                         } t.3.T ; 3.3.w.C s > z o.*.L ~ e.2.T z . 5 . ",
". # =.R B 2.2.6.E C o a = { L 6.3.7.q.5.3                                         &.t.1.L 8 T T 6.Q $ . C o.o.L K q.1.! x . 5 . ",
". # -.T L 4.4.6.] V * n d d { 3.B q.q.7.a                                         } q.4.N T R R [ T , u N { X.L L q.2.E d . 5 . ",
". 7 $.L B u.u.d.U V = H , =.a.6.{ 7.y.:.2                                         ( p.1.M X.6.6.6._ d q V o.X.T L u.9.~ x . 5 . ",
". X =.R h 8.8.t.Q H o Z H I $.` . a.f.4.a                                         ] t.=.N . #.#.y.Q N N n [ { I j y.q.~ x . l . ",
". . *.L P w.w.s.) V o V T Z d ! R s.g.4.2                                         ] r.=.Z - p p Z T N > N ` X.T K a.t.Q x . 5 . ",
". { o.T 8 5.5.u.` V = 3 = i B 0.' y.y.&.a                                         | t.*.s C E E N q . C [ ` { T 9 q.q.` M z . . ",
"&.E { E 8 q.q.a.E Z . 3 ! L ' 3.B q.y.:.:                                         ( 4.=.M N =.=.{ $.Z Q *.Q #.I y t.w.E n G . + ",
"r.~ #.I e 6.6.s.T N N i _ T ;.e.=.t.t.#.z                                         U 5.*.d R =.=.#.E $ ,.g.R X.I 9 q.q.E C n . . ",
"p.h ) s.v.d.d.#.` n s = s p ;.u.B 7.a.{ a                                         W :.{ Z +.u.u.,.$ . p.V.& =.d.x.a.$.E V W . @ ",
"m.. ) X.{ X.X._ R N T u L B 1.e.B ,.9.o.a                                         H *.) Z { q.q.=.` . p.V.B %.$.$.#.{ E H ] . @ ",
"N.. T R R ~ ~ ~ Q X.4.$ ` E X.u.R 4.9.] a                                         x *.{ d { 1.1.{ =.8 p.C.B X.X.$...X._ =.5.. 1 ",
"Y.J.I.K.F.x.x.n.B.B.t.. I L i $.Y 7.9.( z                                         G *.{ s _ $.$.W n . 5.Z.K.R.n.n.D.F.Z.C.&.. : ",
"j.Z.a.R.R.B.B.y.F.V.t.. , o > ! h *.1.( a                                         x { [ u h M M , : . ( M.I.R.q.F.(.R.g.B.9.. 1 ",
"( o.! 1.R P P $.[ { T o , n s g r { #.] 2                                         W #.! d 0 i i q : . ( q.~ X.L o.$.E Z T 2 . . ",
"$ #.$.$./ / / $.) #.U a =.r.t.s.h.6.] ( a                                         H _ ! #.z.s.s.q.*.s ( 9.X.;.X...%.T ,.! z . . ",
". #.{ R Y ' ' E L #.C 3 ] 5.:.6.6.| H ] a                                         W ) ) _ 6.1.1.:.#.d { 4._ +./ _ $.Z ` U a . . ",
"d { ) E L E E T Q Z x = s H H I n T W J a                                         H Q [ T L I I I C . o.y.~ $./ ~ $.R Z M x . . ",
"$ ' ` _ R R R Z Z V d = C Q ( Q U W ( J 3                                         V Z ! T W ( ( ! T = [ w.` #.{ R E T C V z . . ",
". ` _ ` L L L d N N M = V W ( ! H C V m a                                         v M s V T U U T H $ Q 5.! _ _ R T Z Z V v . . ",
". ! Z Z I T T d x u x X a x G x V C V V a                                         3 x u a x V V C u . V I T N C I Z C H V z . . ",
". x u d 2 s s z a a z @ a a z u w 2 2 3 z                                         @ 3 z 2 : 5 5 w 3 * a V d , x V n V G m a . . "
};
