/* XPM */
static char *_a10600caece418ad6226afa3af221e5ZRBANstJyvvySc9q[] = {
/* columns rows colors chars-per-pixel */
"77 63 64 1 ",
"_ c none",
"  c #020202",
". c #040404",
"X c gray3",
"o c gray5",
"O c #131313",
"+ c gray8",
"@ c gray10",
"# c gray11",
"$ c gray13",
"% c gray15",
"& c gray17",
"* c #2F2F2F",
"= c #313131",
"- c gray21",
"; c #3A3A3A",
": c gray24",
"> c #414141",
", c #444444",
"< c gray29",
"1 c gray30",
"2 c #515151",
"3 c gray34",
"4 c #585858",
"5 c gray37",
"6 c gray39",
"7 c #646464",
"8 c gray42",
"9 c #6D6D6D",
"0 c gray45",
"q c #747474",
"w c #797979",
"e c #7E7E7E",
"r c gray51",
"t c #848484",
"y c #8B8B8B",
"u c gray56",
"i c #909090",
"p c #959595",
"a c #9B9B9B",
"s c #9D9D9D",
"d c gray63",
"f c #A7A7A7",
"g c gray67",
"h c #AEAEAE",
"j c gray70",
"k c #B7B7B7",
"l c gray73",
"z c gray",
"x c #C1C1C1",
"c c gray78",
"v c #CACACA",
"b c #CECECE",
"n c LightGray",
"m c #D5D5D5",
"M c #D8D8D8",
"N c #DFDFDF",
"B c #E1E1E1",
"V c #E7E7E7",
"C c #EAEAEA",
"Z c #EFEFEF",
"A c gray94",
"S c #F4F4F4",
"D c #F9F9F9",
/* pixels */
"3cnnNnbMBNMMbNmxzzvVCZCVBNMMvbvxcmNMVCCCVBVZBVCVMnNCAAAAAAZZVVCCCCCCAZNCe;   ",
"2DBAACCZSAZZZCMbbmNVVBMnnmNVNVCCZASANNBBNMNVVBVVVVCAZZCCCCVVBBBBBBBBBMDAx:.  ",
"<w88789987899898689689989889887887789777877877887556777888878888887787496;   ",
"3664344454443434546446677645555644344346454454645213453434334455446441<2<-.  ",
"2988+XoOO$=&==$*%=%-*=&&&&%&&%&&*&&%%&&&%&&**&&$&**&&&*=&***&&%%%*$%*545,=   ",
"1058.#&&*&%*=$==&=*&**&&***=**=*=*=**==&&&%&*&*=%%$*&%&&%%&%%*=&&=$-$w63::.  ",
"2784@$=-=--&*--==:--;;:;>>,,<113245766545877555549734333665442<,>,**:e51;- ..",
"4988q0wwwtiytqe9wylgfddsfdgghjhjghghaaiaidfdaipsiipdfdpudssddaiapsaipt321;   ",
";331<3322<,<>1>2<<,,<,,,,,<,,>,,211,:>,<:>>;>>>::<>;;>>;>;=;;-;:=*::;;:11;   ",
"*;1>;&=>><1:<>,,>-:;,>,<,,<,<,<<2<<,,11,2,>>==:::-->:;=*&=:<:-:;:;::>>-**%X  ",
"  +oOooO+OoO..o oooOOooO.oOOXooOXooO*&@ $oXOooO.oXXoOXO@XXX ..@X@OX+O#oOX  . ",
"  O@#@#%#@%# @++++#O .X #oo#$$+____________.=#@O@oXO.XO#+++@+ +#+###$#$@.    ",
"  @$#@$###$O.#$*-=%&& &=$##$&&@____________.:;&X$;%=#@&$#$$$&.+#$#$##@#@    .",
"  &=&oOO$#$# o@O$;:,-$$&#O@=-=$____________X2**@+$<:@;>>;$+++ *-&X..%#$#     ",
"  -::XXo*%%%.-7w7<634>##%,%21,&____________oe61*&+&*>33,<6t6=X;;=XO@-%%$     ",
"  :>>+@+:=&@ -&>6j<&%%&#73*374-____________Or85&:2=-%**<k8:&& :,>O+#,&&$     ",
"  ::;+%%2**$.*30qeb246;:0,*785-____________+p7w->3q>y83c07w1= >,:+#&2**#     ",
"  :>:+%&5**%.>iqy0fwr6;w60-875=____________#p0q&3,u>60ef6az2: ;:>$%%5*=#.    ",
"  ,<,%*=7-=+.<2is9sq;-=7r1:676=____________#sr9=8qy*;-0twsq6;X<<>$&-7=-@.    ",
"  <1>$&;4-;@.:7ep0a292>7e1-575&____________&d0r-96y;wq1u5yr4-.<,>%*-4=;#     ",
"  <14*-;7-:#.*:50ut,wr-7w4*765&____________&yre&85e>ue3<084>=.113&-;7;;#     ",
"  124&;-0=;@ ;5wtr=1791=09>966&____________*iee:5r0:4,>=7ww1= 125&-:9;;#     ",
"  134%;;0-;#.+=,1&:$%*=&48:w66$____________*y0y;67:=*%=*&=::% 125&-;8;;#     ",
"  245&;;8-;$ $+&-:4q9e-%*@>u46#____________=tqr:-%&>6ur:7>&++ 244*;;7;;$     ",
"  254*>,8::#.#;1:;irq0,r;#<t37$____________=uww1&<>;ewte;14=@ 264=,<8>>$     ",
"  253*23q1<# **-4tpir<*3t6,i39%____________&rwr,58:*6yp8q6;*% 253*220<<$     ",
"  263&22011#.-*2qrw0::3:>5,i28$____________%prq22-><*,eueq>:* 354&22q2<$     ",
"  144&3292,#.-17r96:-,ww:;<u57&____________%ute,=,6e--;6rt8<: 232*32w<1@.    ",
"  254;63t<,# ;:5r1-<9=0u6&9t78&____________@a0e3#229-9<=>74>& 354-44r<2+     ",
"  255-57r,2+.oO$#*318,4qq:4p99%____________oure>;481,579;$%+O 355:56r>1+     ",
"  255>25t><@oX$:&->*-:-ew58t00%____________Xtyt>2w5=*;,55=*&X.245:36r:1+     ",
"  247:32u>3@ %,>%#@&=::<e81aqq%____________ouwr<5w1>1=*=&,5-o.<46;24y,2@     ",
"  247=25t<3+.&;-%%*:11>-ur7uqq%____________Optp3q8=16122-72%O <57-23y11@     ",
"  254;34r3># -=:-o:0rre:5w5aqq$____________opti;69=raue2;e,%+ 156-44r2,#     ",
"  256=76r2<#.-%;=+59yi8*6r5aqq$____________Xurp:q:-2iup3;w:%+ 255=76r4,$.    ",
"  156-79i5,#.-::,+16860>3y5a9q%____________@d0i=9<,4wqq3*w2*@ 265-70i4<#     ",
"  166=87i2<$ =<*:@;2r67=wt5i9w&____________opry192=489w5*66&+ 155-78i3<#     ",
"  266-70i3<$X+=,*@$&:>::7e5aqq#____________.ayr-88&414<-=;1&+X266;90i31#     ",
"  266=50p31@ o=;%$3-%-;<6i3t0e%____________op0t<441-:*,9,#,%oX264*68p21$     ",
"  266&54s<3# @O*%*,29:=9i31prr#____________+h8u1,99>56376*%#+X177;44a1<$     ",
"  266=56s,2$.O$$%=235,4u9;1tqt%____________Oye9:;qt22<16;#&@o.374*28a11$     ",
"  166:38a11% :,7q3;35:88:7>p0e@____________oyee:#4ir=5,;307<*o<57,37a12%     ",
"  266;,4a13*X:>7rtt:=,5:qy4p9r#____________Oyqq-=$8w-;;qar6<=O265;>4a13&     ",
"  166;,5p33&.*169yy0>:-4q4<a9r&____________ re0*;3-8>=0aq79>=+<66;23a32*     ",
"  245;33j35$o*=wireq7*yut71d0w#____________Xee0%4qwe7>y89722:O<57=,5g44%. .  ",
"  146;>3d54* &29,rwr91182::hew@____________+rr5>@-ut>8e9010;@O254><4d44& .   ",
"  145;17f54&.,>2a3e0w1-*=0>jrw@____________+qr7*%$&,,w874u6,<o,55-13g64&.    ",
" 2<46;:,f75&+Oeyr8;&&%=-ww:gq0#____________+tw7%=1,==&*=rqz1&3336>;2g46%*    ",
" e234>>,j51*#o29e44548-4t5-h98$____________+8e7=:2r1y05>10q2:w154:><f54&,X.  ",
" f244>,>d54*;o,772w9r72wqp-d08&____________+798@1<t>8891>35,%d336=<,d81%:    ",
" g>,6pffw62%*O@=-:*:;:=qy8&d07&____________o5q3*80s==>*&=-&%+V<67sddw52&1    ",
" n:>137351:*,O*3<33892;rt6$u96&____________O49<$84p:we;>1>*>$N268706641&7  . ",
" n:=<<<1<332to-59927ww<5i9*p95$____________O193@76e;yqw0734:$M9464756324u.   ",
" BbnNnbjgfzjyOO#%#*>15=%86*p63$____________O363#,68=<-:-$&$oOnlVNghccmclt X  ",
" rNsfZnM4vlzpoO#$$o+XoO+:1&t53%____________@263$=>&O+XOo&$+OXscVmwcBCMtkiX   ",
" 48:3q2:2q<6,.$%&--*;*=&&**763#____________$222%#$#$##%-&&$#+e7>0:4q4;>,@  . ",
" >66971246,5>+,waysuupyessp622$____________&3421gstte665yer<:t9686<9<482;..  ",
" 1163,:43:,8>o<4qree8tr9eqw1><%____________*<,3<rqq0wq0wyw8,=w6404:01<2:* X .",
" <2312;1>>1;-.#&*--,<=;>:--,><$____________*1,3>>:>:>=-<1:*O+a6472:91,;:=.   ",
" >3433;3=,=*-.*;<1,2<<1,1>:,,:#____________*->1>,<1<213251>*#p6576>2::;==    ",
" *<132<,**--=X$::2:<2<,,,>:;-=@____________%-&&=>:>,>><><:=##q5333<<:::*=    ",
" -<,;;->*=&$=.@@&*==:==;=;-===%____________O*%%$&=-;%&*%=*&+O<-:%:;>-;>=- .  ",
" =&O&*+=#-$#*X@X$O%@%$%&$$#@###____________++%%+O#%####+@@@o@=%=o==-==;**    "
};
